<svg width="40" height="40" viewBox="0 0 40 40" fill="none" xmlns="http://www.w3.org/2000/svg">
<g clip-path="url(#clip0_27_334)">
<rect width="40" height="40" rx="20" fill="white"/>
<circle cx="20" cy="20" r="20" fill="#DEF4FF"/>
<path d="M16.1001 5.36011C16.1001 5.36011 11.2721 6.40411 11.6241 12.7441C11.9761 19.0841 10.8441 20.8721 10.8441 20.8721L12.0841 20.5281L16.0961 23.2761L26.9121 21.1121L28.6081 21.6161L29.1321 20.4321C29.1321 20.4321 29.7281 21.0721 30.3201 21.1081C30.3201 21.1081 29.7681 18.2601 29.8721 16.9881C30.0921 14.3241 28.8121 10.4481 28.8121 10.4481L16.0921 5.36011H16.1001Z" fill="#441D39"/>
<path d="M35.9162 35.1201C33.1882 34.2041 27.1042 31.1401 25.0362 30.0841C24.8762 30.0041 24.7442 29.9321 24.6362 29.8801C24.4442 29.7801 24.3322 29.7241 24.3322 29.7241H16.1042C16.1042 29.7241 15.9962 29.7801 15.8002 29.8801C15.6922 29.9361 15.5562 30.0041 15.4002 30.0841C15.0962 30.2401 14.7082 30.4361 14.2562 30.6641C11.6202 31.9921 6.84819 34.3401 4.52019 35.1201C1.20819 36.2361 1.20819 41.8921 1.20819 41.8921H39.2282C39.2282 41.8921 39.2282 36.2361 35.9162 35.1201Z" fill="#FDEBD9"/>
<path d="M23.816 25.8076H16.568L16.1 29.7196C16.1 30.4876 17.944 31.1116 20.216 31.1116C22.488 31.1116 24.332 30.4876 24.332 29.7196L23.82 25.8076H23.816Z" fill="#C1735C"/>
<path d="M13.4038 12.2396C13.4038 12.2396 13.6678 10.0876 15.4918 9.68759C15.4918 9.68759 28.3198 9.68759 25.7478 9.68759C25.7478 9.68759 27.4158 9.68759 27.7638 12.0876C27.8158 12.4476 28.3478 16.1396 28.3158 17.5916C28.2958 18.5236 28.6598 18.0316 28.6598 18.0316C28.6598 18.0316 29.0518 16.5436 29.1158 14.5916C29.2358 10.8716 28.7518 4.47559 20.9078 4.47559C13.0638 4.47559 12.3398 9.18359 12.3398 15.2556L12.6278 18.2436C12.6398 18.3636 12.7398 18.4516 12.8598 18.4516C13.0878 18.4516 13.3998 12.2396 13.3998 12.2396H13.4038Z" fill="#C1735C"/>
<path d="M27.4921 11.4636C27.6445 11.4636 27.7681 11.3401 27.7681 11.1876C27.7681 11.0352 27.6445 10.9116 27.4921 10.9116C27.3396 10.9116 27.2161 11.0352 27.2161 11.1876C27.2161 11.3401 27.3396 11.4636 27.4921 11.4636Z" fill="#FF9988"/>
<path d="M16.2559 28.4236C16.2559 28.4236 21.8759 28.9396 23.8559 26.4756V23.6436L16.7319 24.3276L16.2559 28.4236Z" fill="#A5503C"/>
<path fill-rule="evenodd" clip-rule="evenodd" d="M20.8071 26.944C24.6108 26.944 27.81 23.6397 28.7389 19.1571C28.9118 19.1102 28.9908 19.0717 28.9908 19.0717C29.8308 18.6244 30.2828 17.5899 30.1548 16.244C30.0664 15.3152 29.3647 15.1091 28.9383 15.0706C28.4017 9.94969 24.9658 6 20.8071 6C16.5626 6 13.071 10.1143 12.6464 15.389C12.445 15.3854 11.247 15.4161 11.203 16.656C11.155 18.0099 11.671 19.0124 12.535 19.4078C12.535 19.4078 12.6648 19.4613 12.9529 19.5068C13.9721 23.8105 17.1029 26.944 20.8071 26.944Z" fill="#C1735C"/>
<path d="M24.4238 17.2955C24.6911 17.2955 24.9078 16.9194 24.9078 16.4555C24.9078 15.9916 24.6911 15.6155 24.4238 15.6155C24.1565 15.6155 23.9398 15.9916 23.9398 16.4555C23.9398 16.9194 24.1565 17.2955 24.4238 17.2955Z" fill="#441D39"/>
<path d="M17.1641 17.1236C17.4314 17.1236 17.6481 16.7475 17.6481 16.2836C17.6481 15.8197 17.4314 15.4436 17.1641 15.4436C16.8967 15.4436 16.6801 15.8197 16.6801 16.2836C16.6801 16.7475 16.8967 17.1236 17.1641 17.1236Z" fill="#441D39"/>
<path d="M21.1161 20.2317H20.3521C20.0121 20.2317 19.7121 20.0997 19.5521 19.8837C19.4361 19.7277 19.4041 19.5437 19.4601 19.3637C19.6321 18.8037 19.8681 17.2837 19.8721 17.2677C19.8881 17.1597 19.9921 17.0877 20.1001 17.0997C20.2081 17.1157 20.2841 17.2197 20.2681 17.3277C20.2601 17.3917 20.0241 18.8957 19.8441 19.4797C19.8281 19.5357 19.8361 19.5917 19.8761 19.6477C19.9601 19.7637 20.1481 19.8357 20.3561 19.8357H21.1201C21.2321 19.8357 21.3201 19.9237 21.3201 20.0357C21.3201 20.1477 21.2321 20.2357 21.1201 20.2357L21.1161 20.2317Z" fill="#A5503C"/>
<path d="M24.8518 18.6117C25.6228 18.6117 26.2478 18.4684 26.2478 18.2917C26.2478 18.1149 25.6228 17.9717 24.8518 17.9717C24.0808 17.9717 23.4558 18.1149 23.4558 18.2917C23.4558 18.4684 24.0808 18.6117 24.8518 18.6117Z" fill="#AF5D4E"/>
<path d="M16.7042 18.6117C17.4752 18.6117 18.1002 18.4684 18.1002 18.2917C18.1002 18.1149 17.4752 17.9717 16.7042 17.9717C15.9332 17.9717 15.3082 18.1149 15.3082 18.2917C15.3082 18.4684 15.9332 18.6117 16.7042 18.6117Z" fill="#AF5D4E"/>
<path d="M26.1441 14.4121C24.7921 14.1041 23.7881 14.4121 23.1761 14.5321C22.9161 14.5841 22.8361 14.2601 22.8361 14.2601C22.7721 14.0441 23.0561 13.8721 23.2641 13.8241C23.9561 13.6521 24.8441 13.5321 26.1961 13.9121C26.4561 13.9841 26.4841 14.2001 26.4841 14.2001C26.4681 14.4401 26.3201 14.4561 26.1441 14.4121Z" fill="#441D39"/>
<path d="M15.3601 14.3556C16.7241 14.0996 17.7161 14.4516 18.3241 14.5916C18.5841 14.6516 18.6721 14.3356 18.6721 14.3356C18.7441 14.1236 18.4681 13.9396 18.2641 13.8796C17.5801 13.6836 16.6961 13.5276 15.3281 13.8516C15.0641 13.9156 15.0281 14.1276 15.0281 14.1276C15.0321 14.3676 15.1801 14.3876 15.3601 14.3556Z" fill="#441D39"/>
<path d="M20.5081 23.2718C19.5601 23.2718 18.8121 23.0718 18.7601 23.0598C18.6521 23.0318 18.5921 22.9198 18.6201 22.8158C18.6481 22.7078 18.7601 22.6478 18.8641 22.6758C18.8841 22.6798 20.7241 23.1678 22.2081 22.5878C22.3121 22.5478 22.4281 22.5998 22.4681 22.6998C22.5081 22.8038 22.4561 22.9198 22.3561 22.9598C21.7441 23.1998 21.0881 23.2758 20.5081 23.2758V23.2718Z" fill="#A5503C"/>
<path d="M26.4521 5.15619C20.9641 0.816193 16.1001 5.36019 16.1001 5.36019C11.2881 6.24019 11.9721 13.3442 12.0881 14.1042C12.2041 14.8602 12.3521 15.3842 12.3521 15.3842C12.4561 15.3882 12.5521 15.3842 12.6441 15.3642L13.0521 18.2922C13.0801 18.3962 13.2361 18.4042 13.2721 18.2922C13.3081 18.2522 13.4201 16.5402 13.5281 14.7522C14.4401 13.4042 14.4001 10.2482 16.1001 8.83619C16.9321 8.14419 18.1001 8.68819 18.1001 8.68819C18.1001 8.68819 18.9721 7.14819 21.0481 8.04419C22.9161 8.84819 25.2121 13.9162 27.7441 15.1202C27.8441 16.7682 27.9441 18.2562 27.9761 18.2962C28.0121 18.4082 28.1681 18.4002 28.1961 18.2962L28.6041 15.3722L29.7641 14.7682C29.7641 14.7682 30.2881 7.55219 26.4441 5.16019L26.4521 5.15619Z" fill="#441D39"/>
<path d="M35.916 35.1204C34.476 34.6364 32.1 33.5524 29.872 32.4844L23.656 34.6884V40.6364H23.256V34.8284L21.968 35.2844V41.8884H39.228C39.228 41.8884 39.228 36.2324 35.916 35.1164V35.1204Z" fill="#4598C4"/>
<path d="M26.896 30.1603C24.928 29.4843 21.968 35.2843 21.968 35.2843L23.256 34.8283V40.6363H23.656V34.6883L29.872 32.4843L29.896 32.4763C29.896 32.4763 28.868 30.8363 26.9 30.1603H26.896Z" fill="#2B7FA5"/>
<path d="M17.284 34.8556L16.36 40.4756L15.964 40.4116L16.9 34.7196L10.572 32.4756C8.34001 33.5476 5.95601 34.6356 4.51201 35.1196C1.20001 36.2356 1.20001 41.8916 1.20001 41.8916H18.412L18.5 35.2876L17.284 34.8556Z" fill="#4598C4"/>
<path d="M13.5722 30.1602C11.6082 30.8322 10.5802 32.4682 10.5762 32.4762L16.9042 34.7202L15.9682 40.4122L16.3642 40.4762L17.2882 34.8562L18.5042 35.2882C18.5042 35.2882 15.5402 29.4882 13.5762 30.1642L13.5722 30.1602Z" fill="#2B7FA5"/>
</g>
<defs>
<clipPath id="clip0_27_334">
<rect width="40" height="40" rx="20" fill="white"/>
</clipPath>
</defs>
</svg>
