<svg width="40" height="40" viewBox="0 0 40 40" fill="none" xmlns="http://www.w3.org/2000/svg">
<path d="M24.9716 5L25.1766 5.01C28.5332 5.36667 31.0549 6.13 33.4532 7.79833C33.7394 7.99803 33.9557 8.28251 34.0716 8.61167C37.1982 17.47 38.0266 25.2567 36.4899 29.0783C34.8182 32.42 32.1466 35 29.1666 35C27.5999 35 25.4049 32.34 24.5382 30.0517L24.5049 30.06C25.9016 29.8417 27.3216 29.5217 28.7916 29.1033C29.0021 29.0431 29.1988 28.9421 29.3703 28.8059C29.5418 28.6697 29.6847 28.5011 29.7911 28.3096C29.8974 28.1182 29.965 27.9077 29.9899 27.6901C30.0149 27.4726 29.9968 27.2522 29.9366 27.0417C29.8764 26.8311 29.7753 26.6345 29.6391 26.463C29.503 26.2915 29.3343 26.1485 29.1429 26.0422C28.9514 25.9359 28.7409 25.8683 28.5234 25.8433C28.3058 25.8183 28.0855 25.8365 27.8749 25.8967C22.3416 27.48 17.6582 27.48 12.1249 25.8967C11.6997 25.7751 11.2436 25.8275 10.8569 26.0422C10.4703 26.2569 10.1848 26.6164 10.0632 27.0417C9.94169 27.4669 9.99403 27.923 10.2088 28.3096C10.4235 28.6963 10.783 28.9818 11.2082 29.1033C12.4166 29.4483 13.5932 29.725 14.7516 29.935L15.4916 30.0583C14.6966 32.3417 12.6666 35 11.1132 35C8.20825 35 5.65325 32.4083 4.00158 28.9267C2.59991 25.25 3.38658 17.48 6.35825 8.63667C6.46774 8.30921 6.67623 8.02385 6.95491 7.82C9.27491 6.12667 11.6332 5.36167 14.8166 5.01167C15.1185 4.9786 15.4237 5.02866 15.6992 5.15644C15.9747 5.28421 16.2101 5.48485 16.3799 5.73667L16.4849 5.915L17.5716 8.06167L17.8382 8.03C19.2999 7.88 20.7016 7.88 22.1632 8.03L22.4266 8.06167L23.5099 5.91667C23.6311 5.67632 23.8088 5.46891 24.0276 5.31218C24.2465 5.15544 24.5 5.05405 24.7666 5.01667L24.9716 5ZM14.9999 15C14.2033 15 13.4331 15.2852 12.8287 15.804C12.2242 16.3228 11.8256 17.041 11.7049 17.8283L11.6749 18.085L11.6666 18.3333L11.6749 18.5833C11.7236 19.2301 11.9598 19.8486 12.3547 20.3631C12.7497 20.8775 13.2861 21.2656 13.8983 21.4797C14.5105 21.6939 15.1719 21.7248 15.8014 21.5686C16.4309 21.4125 17.0012 21.0761 17.4423 20.6006C17.8835 20.1252 18.1763 19.5314 18.285 18.892C18.3937 18.2526 18.3136 17.5954 18.0543 17.0009C17.795 16.4064 17.368 15.9004 16.8254 15.545C16.2829 15.1896 15.6485 15.0002 14.9999 15ZM24.9999 15C24.2033 15 23.4331 15.2852 22.8287 15.804C22.2242 16.3228 21.8256 17.041 21.7049 17.8283L21.6749 18.085L21.6666 18.3333L21.6749 18.5833C21.7236 19.2301 21.9598 19.8486 22.3547 20.3631C22.7497 20.8775 23.2861 21.2656 23.8983 21.4797C24.5105 21.6939 25.1719 21.7248 25.8014 21.5686C26.4309 21.4125 27.0012 21.0761 27.4423 20.6006C27.8835 20.1252 28.1763 19.5314 28.285 18.892C28.3937 18.2526 28.3136 17.5954 28.0543 17.0009C27.795 16.4064 27.368 15.9004 26.8254 15.545C26.2829 15.1896 25.6485 15.0002 24.9999 15Z" fill="black"/>
</svg>
