<svg width="40" height="40" viewBox="0 0 40 40" fill="none" xmlns="http://www.w3.org/2000/svg">
<path d="M28.3333 5.83318C28.3333 5.61216 28.2455 5.4002 28.0893 5.24392C27.933 5.08764 27.721 4.99984 27.5 4.99984H23.3333C21.2352 4.89533 19.181 5.6255 17.6195 7.03081C16.0581 8.43612 15.1163 10.4023 15 12.4998V16.9998H10.8333C10.6123 16.9998 10.4004 17.0876 10.2441 17.2439C10.0878 17.4002 10 17.6122 10 17.8332V22.1665C10 22.3875 10.0878 22.5995 10.2441 22.7558C10.4004 22.912 10.6123 22.9998 10.8333 22.9998H15V34.1665C15 34.3875 15.0878 34.5995 15.2441 34.7558C15.4004 34.912 15.6123 34.9998 15.8333 34.9998H20.8333C21.0543 34.9998 21.2663 34.912 21.4226 34.7558C21.5789 34.5995 21.6667 34.3875 21.6667 34.1665V22.9998H26.0333C26.2187 23.0025 26.3996 22.9433 26.5475 22.8316C26.6954 22.7199 26.8018 22.5621 26.85 22.3832L28.05 18.0498C28.0832 17.9267 28.0876 17.7976 28.063 17.6725C28.0384 17.5474 27.9855 17.4296 27.9082 17.3281C27.8309 17.2267 27.7314 17.1444 27.6173 17.0874C27.5032 17.0305 27.3775 17.0006 27.25 16.9998H21.6667V12.4998C21.7081 12.0873 21.9019 11.705 22.21 11.4277C22.5182 11.1503 22.9187 10.9978 23.3333 10.9998H27.5C27.721 10.9998 27.933 10.912 28.0893 10.7558C28.2455 10.5995 28.3333 10.3875 28.3333 10.1665V5.83318Z" fill="black"/>
</svg>
