<svg width="75" height="19" viewBox="0 0 75 19" fill="none" xmlns="http://www.w3.org/2000/svg">
<path  d="M19.3292 1.30468C19.4566 1.5434 19.5282 1.75826 19.5441 1.94924C19.5759 2.14022 19.5918 2.41873 19.5918 2.78478V16.0341C19.5918 17.1323 19.2895 17.7768 18.6847 17.9678C18.3823 18.0633 18.0003 18.111 17.5388 18.111C17.0772 18.111 16.7112 18.0713 16.4406 17.9917C16.1701 17.9121 15.9632 17.8166 15.82 17.7052C15.6767 17.5938 15.5653 17.4346 15.4857 17.2278C15.4062 16.9572 15.3664 16.5434 15.3664 15.9864V7.98903C14.9685 8.48239 14.3876 9.27019 13.6237 10.3524C12.8597 11.4187 12.3743 12.0872 12.1674 12.3577C11.9605 12.6283 11.8173 12.8193 11.7377 12.9307C11.6582 13.0262 11.4592 13.1694 11.1409 13.3604C10.8385 13.5354 10.5043 13.623 10.1383 13.623C9.78812 13.623 9.46187 13.5434 9.15948 13.3843C8.87301 13.2092 8.66611 13.0421 8.53879 12.8829L8.34781 12.6203C8.0295 12.2224 7.40086 11.3789 6.46186 10.0898C5.52287 8.78478 5.01359 8.08452 4.93401 7.98903V16.0341C4.93401 16.4002 4.9181 16.6787 4.88627 16.8697C4.87035 17.0447 4.79873 17.2437 4.67141 17.4665C4.43269 17.8962 3.812 18.111 2.80934 18.111C1.83852 18.111 1.23375 17.8962 0.995021 17.4665C0.8677 17.2437 0.788125 17.0368 0.756295 16.8458C0.740379 16.6548 0.732422 16.3683 0.732422 15.9864V2.73704C0.732422 2.37099 0.740379 2.10043 0.756295 1.92537C0.788125 1.73438 0.8677 1.51953 0.995021 1.2808C1.23375 0.86701 1.85444 0.660113 2.85709 0.660113C3.2868 0.660113 3.65285 0.715816 3.95523 0.827223C4.27354 0.922713 4.48043 1.02616 4.57592 1.13757L4.71916 1.2808L10.1383 8.39486C12.8438 4.81396 14.6502 2.45056 15.5574 1.30468C15.8279 0.874967 16.4645 0.660113 17.4672 0.660113C18.4857 0.660113 19.1064 0.874967 19.3292 1.30468Z" fill="#1B1D1C"/>
<path  d="M30.9103 0.421387C33.2657 0.421387 35.3108 1.27285 37.0456 2.97576C38.7803 4.67868 39.6477 6.79539 39.6477 9.3259C39.6477 11.8405 38.8201 13.989 37.1649 15.7715C35.5098 17.5381 33.4726 18.4214 31.0535 18.4214C28.6344 18.4214 26.5734 17.5461 24.8705 15.7954C23.1835 14.0447 22.34 11.9598 22.34 9.54075C22.34 8.21979 22.5787 6.98637 23.0562 5.84048C23.5336 4.67868 24.1702 3.70786 24.966 2.92802C25.7617 2.14818 26.6769 1.53544 27.7113 1.08982C28.7458 0.644198 29.8121 0.421387 30.9103 0.421387ZM26.5655 9.42139C26.5655 10.8378 27.019 11.9917 27.9262 12.8829C28.8493 13.7583 29.8758 14.1959 31.0058 14.1959C32.1358 14.1959 33.1543 13.7662 34.0615 12.9068C34.9686 12.0474 35.4222 10.8935 35.4222 9.44526C35.4222 7.99698 34.9607 6.83518 34.0376 5.95985C33.1304 5.08452 32.1119 4.64685 30.9819 4.64685C29.8519 4.64685 28.8334 5.09247 27.9262 5.98372C27.019 6.85905 26.5655 8.00494 26.5655 9.42139Z" fill="#1B1D1C"/>
<path  d="M44.527 0.612369L48.9435 0.636241C51.2512 0.636241 53.2803 1.47178 55.031 3.14287C56.7817 4.79804 57.657 6.84314 57.657 9.27815C57.657 11.6972 56.7976 13.7742 55.0788 15.5089C53.3758 17.2437 51.3069 18.111 48.8719 18.111H44.5032C43.5323 18.111 42.9276 17.9121 42.6888 17.5142C42.4979 17.18 42.4024 16.6707 42.4024 15.9864V2.71316C42.4024 2.3312 42.4103 2.05269 42.4262 1.87762C42.4581 1.70255 42.5376 1.49566 42.665 1.25693C42.8878 0.827223 43.5085 0.612369 44.527 0.612369ZM48.9435 13.8856C50.0894 13.8856 51.1239 13.4638 52.0469 12.6203C52.97 11.7609 53.4315 10.6866 53.4315 9.39751C53.4315 8.10839 52.978 7.03412 52.0708 6.1747C51.1796 5.29937 50.1292 4.8617 48.9196 4.8617H46.6278V13.8856H48.9435Z" fill="#1B1D1C"/>
<path  d="M64.6303 13.9094H71.983C72.3491 13.9094 72.6196 13.9254 72.7947 13.9572C72.9857 13.9731 73.2005 14.0447 73.4393 14.172C73.869 14.3949 74.0838 15.0155 74.0838 16.0341C74.0838 17.1482 73.7894 17.8007 73.2005 17.9917C72.93 18.0872 72.5162 18.1349 71.9592 18.1349H62.5056C61.3915 18.1349 60.739 17.8325 60.548 17.2278C60.4525 16.9731 60.4048 16.5673 60.4048 16.0102V2.73704C60.4048 1.92537 60.556 1.37629 60.8584 1.08982C61.1608 0.787434 61.7337 0.636241 62.5772 0.636241H71.983C72.3491 0.636241 72.6196 0.652156 72.7947 0.683987C72.9857 0.699902 73.2005 0.77152 73.4393 0.89884C73.869 1.12165 74.0838 1.74234 74.0838 2.76091C74.0838 3.87497 73.7894 4.52749 73.2005 4.71847C72.93 4.81396 72.5162 4.8617 71.9592 4.8617H64.6303V7.27285H69.357C69.7231 7.27285 69.9937 7.28876 70.1687 7.32059C70.3597 7.33651 70.5746 7.40812 70.8133 7.53544C71.243 7.75826 71.4578 8.37895 71.4578 9.39751C71.4578 10.5116 71.1555 11.1641 70.5507 11.3551C70.2801 11.4506 69.8663 11.4983 69.3093 11.4983H64.6303V13.9094Z" fill="#1B1D1C"/>
</svg>
 