<svg width="40" height="40" viewBox="0 0 40 40" fill="none" xmlns="http://www.w3.org/2000/svg">
<path d="M13.4667 33.3333C15.9312 33.4158 18.3872 33.0034 20.6896 32.1205C22.992 31.2376 25.0941 29.9021 26.8716 28.193C28.649 26.4839 30.0659 24.4358 31.0384 22.1698C32.0108 19.9038 32.5192 17.4658 32.5334 15C33.6628 13.6023 34.5015 11.993 35.0001 10.2667C35.0373 10.1303 35.0343 9.98601 34.9914 9.85128C34.9486 9.71655 34.8677 9.59708 34.7585 9.50727C34.6493 9.41745 34.5165 9.36111 34.376 9.34504C34.2355 9.32896 34.0934 9.35383 33.9667 9.41666C33.3759 9.70108 32.7107 9.79296 32.0648 9.67933C31.419 9.56571 30.8251 9.25233 30.3667 8.78333C29.7817 8.14262 29.0739 7.62588 28.2855 7.2637C27.497 6.90153 26.6439 6.7013 25.7767 6.67488C24.9094 6.64846 24.0457 6.79638 23.2366 7.10989C22.4276 7.42339 21.6897 7.89609 21.0667 8.49999C20.2137 9.32609 19.5889 10.3588 19.2531 11.4978C18.9172 12.6368 18.8817 13.8432 19.1501 15C13.5667 15.3333 9.7334 12.6833 6.66674 9.04999C6.57461 8.94566 6.45409 8.87041 6.31991 8.83344C6.18572 8.79647 6.04367 8.79937 5.91111 8.84179C5.77855 8.88421 5.6612 8.96431 5.57341 9.07232C5.48562 9.18033 5.43118 9.31156 5.41674 9.44999C4.83252 12.6907 5.25395 16.0326 6.62443 19.0268C7.99491 22.021 10.2488 24.5241 13.0834 26.2C11.1828 28.3797 8.51375 29.7411 5.6334 30C5.47909 30.0256 5.33664 30.0988 5.22599 30.2093C5.11534 30.3199 5.04202 30.4623 5.01631 30.6166C4.99059 30.7709 5.01376 30.9294 5.08257 31.0698C5.15139 31.2103 5.2624 31.3257 5.40007 31.4C7.90594 32.6523 10.6655 33.3136 13.4667 33.3333Z" fill="black"/>
</svg>
